<svg width="280" height="355" viewBox="0 0 280 355" fill="none" xmlns="http://www.w3.org/2000/svg">
<path d="M246.297 9.42511L246.629 9.4321L246.636 9.10022L246.701 6.0397L246.708 5.70782L246.376 5.70083L166.202 4.01225L165.87 4.00526L165.863 4.33714L165.799 7.39765L165.792 7.72953L166.124 7.73652L203.944 8.53308L200.864 154.786L70.6397 2.11085L70.5431 1.99752L70.3941 1.99439L42.1722 1.39999L7.42301 0.668121L7.09113 0.661131L7.08414 0.99301L7.01968 4.05353L7.01269 4.38541L7.34457 4.3924L30.8352 4.88715L39.3839 14.3537L36.6361 144.82L36.6291 145.152L36.961 145.159L42.8813 145.283L43.2132 145.29L43.2202 144.958L43.4167 135.626L45.8201 21.514L202.34 207.759L202.437 207.874L202.587 207.877L204.694 207.922L205.026 207.929L205.033 207.597L209.224 8.64427L246.297 9.42511Z" fill="url(#paint0_linear)" stroke="#DAD2BC" stroke-width="0.663905"/>
<path d="M45.2867 284.683C45.4152 284.377 45.4151 284.377 45.415 284.377L45.414 284.377L45.4097 284.375L45.392 284.368L45.3203 284.337C45.2567 284.309 45.1617 284.268 45.0373 284.213C44.7886 284.102 44.4222 283.936 43.9536 283.714C43.0165 283.272 41.671 282.607 40.0409 281.724C36.7802 279.958 32.3838 277.316 27.8406 273.816C18.7454 266.81 9.10828 256.401 6.75458 242.729L6.74413 242.668L6.71262 242.615C6.64521 242.502 6.57387 242.393 6.49699 242.308C6.42611 242.229 6.30446 242.119 6.12894 242.101C5.93444 242.081 5.79015 242.184 5.70226 242.276C5.61559 242.367 5.54153 242.488 5.47385 242.619L5.43827 242.687L5.43664 242.764L4.26422 298.431L4.26289 298.494L4.28492 298.554C4.34839 298.724 4.41781 298.875 4.50363 298.984C4.59298 299.098 4.76088 299.233 4.9923 299.179C5.16469 299.139 5.27759 299.006 5.33522 298.932C5.40461 298.843 5.47372 298.731 5.53889 298.624L5.55947 298.59L5.57146 298.552C5.86298 297.632 6.13337 296.682 6.40698 295.72C6.93846 293.853 7.48207 291.943 8.2163 290.128C9.32144 287.397 10.8319 284.964 13.3035 283.375C15.7716 281.788 19.2479 281.012 24.3487 281.698C29.4539 282.384 36.1628 284.532 45.0645 288.765C53.7663 292.904 64.7104 297.676 75.5642 301.458C86.4104 305.238 97.1964 308.04 105.571 308.216C124.27 308.61 140.346 304.775 153.783 296.694L153.784 296.693C167.545 288.312 174.607 276.157 174.941 260.262C175.078 253.787 174.61 246.222 173.121 239.204C171.634 232.197 169.119 225.696 165.133 221.387C157.536 212.581 146.735 204.451 134.733 199.587C122.778 194.453 107.049 188.334 89.3342 183.651L54.2415 172.97L54.2306 172.966L54.2196 172.964C39.321 169.519 31.6987 162.209 27.7938 155.789C25.8385 152.574 24.8106 149.574 24.2717 147.381C24.0022 146.284 23.8552 145.39 23.7755 144.771C23.7357 144.462 23.7128 144.222 23.6999 144.06C23.6934 143.979 23.6894 143.918 23.6871 143.878L23.6847 143.833L23.6842 143.822L23.6841 143.82L23.6841 143.82L23.6841 143.82L23.6798 143.702L23.6024 143.614C23.5075 143.505 23.3979 143.298 23.2904 142.969C23.185 142.647 23.09 142.235 23.0088 141.739C22.8465 140.748 22.7436 139.451 22.7147 137.935C22.6569 134.904 22.8951 131.024 23.5286 127.014C24.1623 123.003 25.1895 118.874 26.704 115.34C28.221 111.8 30.2111 108.894 32.7484 107.278C36.8958 104.638 48.9249 98.4415 85.107 99.8239L85.1126 99.824L124.847 100.661L125.178 100.668L125.185 100.336L125.267 96.4486L125.274 96.1168L124.942 96.1098L85.2085 95.2729L85.1945 95.2726C70.6622 94.9665 58.6155 94.7128 48.4466 95.991C38.2682 97.2704 29.9415 100.087 22.8565 105.942C9.93869 115.5 4.40042 128.421 4.08439 143.426C3.73721 159.91 11.2829 173.087 26.6613 182.935L26.6651 182.938C42.0029 192.469 62.6749 200.664 88.6683 207.531C111.773 213.754 129.531 220.721 141.958 228.422L141.963 228.425C154.337 235.805 160.36 246.444 160.066 260.379C159.95 265.929 158.469 273.32 155.644 280.077C152.817 286.842 148.665 292.915 143.245 295.903C132.558 301.674 119.947 304.637 105.653 304.336C86.2293 303.927 65.69 294.344 45.4332 284.386L45.4243 284.381L45.4152 284.377L45.2867 284.683Z" fill="url(#paint1_linear)" stroke="#DAD2BC" stroke-width="0.663905"/>
<path d="M102.06 194.082C102.062 194.066 102.064 194.051 102.065 194.036C102.065 194.036 102.065 194.036 102.065 194.036L102.065 194.035L102.065 194.032L102.066 194.018L102.07 193.96C102.074 193.907 102.081 193.827 102.09 193.72C102.109 193.507 102.139 193.19 102.187 192.774C102.283 191.942 102.447 190.718 102.721 189.16C103.269 186.042 104.256 181.585 106.009 176.243C109.515 165.558 116.085 151.339 128.34 137.213C134.331 130.307 144.01 124.015 154.831 119.505C165.649 114.995 177.549 112.291 187.954 112.51C213.841 113.055 228.176 122.232 247.642 135.438C256.627 143.109 260.599 147.807 263.321 155.104C264.693 158.781 265.751 163.129 266.954 168.876C267.454 171.266 267.983 173.918 268.571 176.867C269.387 180.953 270.315 185.608 271.437 190.92C271.459 191.021 271.506 191.113 271.576 191.189C272.171 191.833 272.773 192.3 273.481 192.289C274.174 192.278 274.751 191.807 275.292 191.266C275.396 191.162 275.455 191.022 275.458 190.876L277.149 110.608C277.152 110.475 277.108 110.345 277.024 110.24C276.622 109.738 275.976 109.456 275.353 109.419C274.723 109.381 274.016 109.593 273.571 110.21C273.522 110.278 273.488 110.356 273.473 110.439C271.814 119.429 269.036 124.843 265.874 127.953C262.73 131.045 259.153 131.911 255.752 131.693C252.331 131.474 249.087 130.156 246.68 128.873C245.48 128.234 244.497 127.609 243.816 127.145C243.475 126.913 243.211 126.721 243.032 126.588C242.943 126.522 242.875 126.47 242.83 126.435L242.808 126.418C242.796 126.409 242.787 126.402 242.78 126.397L242.769 126.387L242.766 126.385L242.766 126.385C242.736 126.362 242.705 126.341 242.671 126.324C240.668 125.294 238.76 124.302 236.928 123.35C219.179 114.125 208.537 108.594 188.045 108.162C164.469 107.666 143.828 108.376 117.701 124.516C102.463 133.929 91.1072 145.077 79.0081 167.213C73.208 176.55 69.5875 188.548 67.342 201.6C65.0944 214.663 64.2183 228.82 63.9305 242.488C63.93 242.508 63.9307 242.528 63.9324 242.548C65.9375 266.104 69.4531 280.689 80.1174 299.653C80.1367 299.688 80.1596 299.72 80.1856 299.75C81.3017 301.022 82.3767 302.252 83.4172 303.442C97.582 319.648 105.376 328.565 123.778 337.86C145.928 349.047 163.603 351.764 184.667 352.207C209.368 352.727 227.94 348.81 245.615 339.895C257.933 333.682 264.657 326.651 268.589 319.562C272.231 312.996 273.455 306.413 274.549 300.525C274.634 300.072 274.717 299.623 274.801 299.178C274.806 299.148 274.81 299.116 274.81 299.085C274.844 297.473 273.915 296.407 272.731 296.382C271.551 296.358 270.581 297.374 270.54 298.975C269.64 308.892 263.404 325.617 242.903 335.869C231.113 341.764 222.304 344.55 213.603 345.809C205.351 347.002 197.181 346.827 186.604 346.6C186.006 346.587 185.4 346.574 184.786 346.561C172.974 346.312 163.728 344.359 155.445 340.772C147.156 337.184 139.801 331.948 131.779 325.093C118.104 313.407 113.374 301.604 104.997 280.705C104.684 279.923 104.365 279.127 104.041 278.319L104.033 278.291C104.022 278.251 104.006 278.191 103.985 278.112C103.943 277.954 103.882 277.721 103.803 277.418C103.647 276.812 103.423 275.929 103.155 274.823C102.619 272.611 101.907 269.507 101.204 265.943C99.7959 258.803 98.4309 249.852 98.5692 242.511C98.8313 228.599 99.7044 216.488 100.512 207.857C100.916 203.541 101.303 200.095 101.589 197.729C101.732 196.547 101.85 195.634 101.932 195.017C101.973 194.709 102.005 194.474 102.027 194.317L102.052 194.14L102.058 194.096L102.06 194.085L102.06 194.082L102.06 194.082C102.06 194.082 102.06 194.082 101.497 194.001L102.06 194.082Z" fill="url(#paint2_linear)" stroke="#DAD2BC" stroke-width="1.13856" stroke-linejoin="round"/>
<defs>
<linearGradient id="paint0_linear" x1="126.892" y1="3.51635" x2="122.631" y2="205.861" gradientUnits="userSpaceOnUse">
<stop offset="0.442708" stop-color="#DAD2BC"/>
<stop offset="0.9999" stop-color="#DAD2BC" stop-opacity="0"/>
<stop offset="1" stop-color="#DAD2BC" stop-opacity="0"/>
</linearGradient>
<linearGradient id="paint1_linear" x1="91.7475" y1="95.7427" x2="87.2876" y2="307.499" gradientUnits="userSpaceOnUse">
<stop offset="0.442708" stop-color="#DAD2BC"/>
<stop offset="0.9999" stop-color="#DAD2BC" stop-opacity="0"/>
<stop offset="1" stop-color="#DAD2BC" stop-opacity="0"/>
</linearGradient>
<linearGradient id="paint2_linear" x1="171.601" y1="107.801" x2="166.474" y2="351.254" gradientUnits="userSpaceOnUse">
<stop offset="0.442708" stop-color="#DAD2BC"/>
<stop offset="0.9999" stop-color="#DAD2BC" stop-opacity="0"/>
<stop offset="1" stop-color="#DAD2BC" stop-opacity="0"/>
</linearGradient>
</defs>
</svg>
