<svg width="53" height="60" viewBox="0 0 53 60" fill="none" xmlns="http://www.w3.org/2000/svg">
<g filter="url(#filter0_d)">
<path d="M46.1037 8.33527L46.2958 8.33886L46.3004 8.14673L46.3106 7.71445L46.3152 7.52232L46.123 7.51872L33.3673 7.28022L33.1751 7.27662L33.1706 7.46875L33.1603 7.90104L33.1558 8.09317L33.3479 8.09676L39.2258 8.20667L38.7473 28.3792L18.2585 7.05385L18.2036 6.99669L18.1242 6.9952L13.634 6.91124L8.10539 6.80787L7.91324 6.80428L7.90868 6.99641L7.89842 7.42869L7.89386 7.62082L8.08601 7.62442L11.7699 7.6933L13.0461 8.94789L12.6104 27.3114L12.6059 27.5036L12.798 27.5072L13.7399 27.5248L13.9321 27.5284L13.9367 27.3362L13.9679 26.0181L14.3422 10.2435L39.014 36.3063L39.069 36.3645L39.1493 36.366L39.4846 36.3723L39.6767 36.3758L39.6813 36.1837L40.3445 8.22759L46.1037 8.33527Z" fill="url(#paint0_linear)" stroke="url(#paint1_linear)" stroke-width="0.384367"/>
<path d="M31.4506 48.8952L31.4515 48.8947C33.6789 47.6903 34.8389 45.9292 34.8936 43.6226C34.9156 42.6985 34.8406 41.6165 34.5999 40.6099C34.3604 39.608 33.9517 38.6595 33.2902 38.0236C32.0669 36.7654 30.3317 35.6067 28.4044 34.9129C26.4997 34.1868 23.9924 33.3208 21.1676 32.6577L15.5865 31.1496L15.5865 31.1493L15.575 31.1469C13.2346 30.6665 12.0547 29.6518 11.4566 28.7788C11.1559 28.34 10.9986 27.9316 10.9166 27.635C10.8755 27.4868 10.8533 27.3666 10.8415 27.2848C10.8356 27.244 10.8322 27.2128 10.8304 27.1925C10.8295 27.1823 10.8289 27.1749 10.8287 27.1705L10.8284 27.1659L10.8284 27.1659L10.8284 27.1656L10.8284 27.1654L10.8284 27.1653L10.8253 27.0921L10.7755 27.0415C10.7757 27.0413 10.7679 27.0308 10.7567 27.0002C10.7438 26.9652 10.7305 26.9157 10.7186 26.8509C10.6947 26.7214 10.6787 26.5469 10.6742 26.3376C10.6653 25.9199 10.7023 25.3818 10.8014 24.8246C10.9007 24.2669 11.0608 23.6979 11.294 23.2146C11.5283 22.7294 11.8279 22.3477 12.1968 22.1392C12.8265 21.7833 14.7127 20.9091 20.4561 21.1039L20.4561 21.1039L20.459 21.104L26.7807 21.2222L26.9729 21.2258L26.9774 21.0336L26.9904 20.4846L26.995 20.2924L26.8029 20.2888L20.4811 20.1706L20.471 20.1705C18.1653 20.1273 16.2415 20.0914 14.6151 20.2729C12.9841 20.4549 11.6342 20.857 10.4808 21.7021C8.38724 23.0785 7.48282 24.9484 7.43143 27.1148C7.37457 29.5115 8.61679 31.4163 11.0956 32.8256L11.0978 32.8268C13.553 34.1812 16.8549 35.3422 20.9966 36.3136C24.6675 37.1915 27.4794 38.1721 29.4411 39.2514L29.4438 39.2528C30.414 39.7665 31.1244 40.3883 31.5871 41.1135C32.049 41.8374 32.2711 42.6751 32.2483 43.6339C32.2303 44.3952 32.0004 45.4186 31.559 46.3558C31.1168 47.2951 30.4756 48.1199 29.6536 48.5225C27.9753 49.327 25.9902 49.7423 23.7339 49.7001C20.6744 49.6429 17.4309 48.3018 14.2037 46.8933L14.2039 46.893L14.194 46.8894L14.194 46.8894L14.194 46.8894L14.1934 46.8892L14.1909 46.8882L14.1801 46.8841L14.1363 46.867C14.0976 46.8518 14.0402 46.8287 13.9666 46.7978C13.8193 46.736 13.6074 46.6431 13.3504 46.5195C12.836 46.272 12.1428 45.9023 11.4272 45.4129C9.98808 44.4286 8.49533 42.9863 8.13225 41.114L8.12488 41.076L8.10333 41.0439C8.09124 41.0259 8.07338 41.0006 8.05058 40.9782C8.02974 40.9577 7.98208 40.9166 7.90884 40.9101C7.82722 40.9028 7.76772 40.942 7.73601 40.9714C7.70655 40.9987 7.68612 41.0306 7.67288 41.0533L7.64775 41.0963L7.64657 41.146L7.46004 49.0087L7.45907 49.0495L7.47481 49.0872C7.48655 49.1152 7.50505 49.1547 7.53493 49.1884C7.56913 49.2269 7.64136 49.2802 7.7413 49.2595C7.81527 49.2442 7.8594 49.1942 7.8721 49.1798C7.88995 49.1596 7.90574 49.1365 7.91544 49.1222L7.91559 49.122L7.92964 49.1014L7.93801 49.078C7.98789 48.9383 8.03237 48.7993 8.07651 48.6614C8.15913 48.4033 8.24057 48.1488 8.35404 47.8999C8.52235 47.5306 8.74545 47.2164 9.10363 47.012C9.46278 46.807 9.98432 46.6974 10.7782 46.7922C11.5732 46.887 12.6276 47.1854 14.0379 47.7808C15.425 48.3664 17.1706 49.0422 18.903 49.5782C20.6316 50.113 22.3622 50.5134 23.714 50.5387C26.7063 50.5946 29.2878 50.0499 31.4506 48.8952Z" fill="url(#paint2_linear)" stroke="url(#paint3_linear)" stroke-width="0.384367"/>
<path d="M23.3946 34.3119L23.3946 34.3119L23.398 34.2823C23.398 34.2822 23.398 34.2822 23.398 34.2821L23.3981 34.2814L23.3986 34.275L23.4014 34.2449C23.4041 34.2174 23.4087 34.1751 23.4159 34.119C23.4305 34.0069 23.4557 33.8397 23.4982 33.6255C23.583 33.197 23.7365 32.5807 24.0102 31.8403C24.5573 30.36 25.5849 28.3833 27.5068 26.4167C28.4253 25.4768 29.9291 24.6038 31.6329 23.9732C33.3332 23.344 35.1978 22.9693 36.8187 22.9996C40.8698 23.0753 43.1063 24.3413 46.19 26.1984C47.6026 27.2701 48.1903 27.9009 48.5965 28.8677C48.806 29.3661 48.9704 29.9626 49.1614 30.7727C49.2382 31.0984 49.3222 31.4721 49.4161 31.8895C49.5473 32.4735 49.6979 33.1431 49.8748 33.8868C49.8894 33.948 49.9211 34.0036 49.9664 34.0471C50.0702 34.147 50.2249 34.2711 50.4336 34.2682C50.6357 34.2654 50.7853 34.1427 50.8745 34.0634C50.9432 34.0023 50.9835 33.9155 50.9856 33.8238L51.2546 22.4864C51.2566 22.4024 51.2265 22.321 51.1704 22.2588C51.0537 22.1295 50.8864 22.0726 50.7437 22.0651C50.5992 22.0574 50.4009 22.0978 50.2645 22.2656C50.231 22.3067 50.208 22.3553 50.1972 22.4071C49.9401 23.6433 49.5176 24.3498 49.0691 24.7414C48.6269 25.1275 48.1226 25.2395 47.626 25.2113C47.122 25.1826 46.636 25.009 46.2675 24.8347C46.0851 24.7484 45.9359 24.6641 45.833 24.6019C45.7817 24.5708 45.7422 24.5454 45.7161 24.5282C45.7031 24.5196 45.6934 24.5131 45.6874 24.5089L45.6811 24.5045L45.6803 24.504L45.6801 24.5039C45.6633 24.492 45.6455 24.4818 45.6269 24.4733C45.3082 24.3278 45.0042 24.1875 44.7119 24.0526C41.8877 22.7491 40.1545 21.9492 36.8451 21.8873C33.0823 21.8169 29.7489 21.9163 25.5375 24.2259C23.0779 25.5748 21.2404 27.1782 19.2941 30.3377C18.3454 31.6962 17.7611 33.4276 17.4008 35.2866C17.0393 37.152 16.8993 39.1677 16.8534 41.105C16.8531 41.1181 16.8535 41.1312 16.8548 41.1442C17.1766 44.5007 17.7451 46.6018 19.4679 49.3218C19.4805 49.3416 19.4951 49.36 19.5116 49.3766C19.69 49.5572 19.862 49.7319 20.0286 49.9011C22.2819 52.19 23.5499 53.4781 26.5189 54.8094C30.0792 56.4058 32.9238 56.793 36.2958 56.856C40.2519 56.93 43.2415 56.3728 46.0912 55.0967C48.0836 54.2046 49.1962 53.1832 49.8539 52.1305C50.4583 51.163 50.6615 50.1912 50.8348 49.3625C50.8484 49.297 50.8619 49.2324 50.8755 49.1687C50.8797 49.1488 50.8821 49.1285 50.8825 49.1081C50.8866 48.9379 50.8349 48.7778 50.7246 48.6567C50.6162 48.5376 50.4678 48.4755 50.3186 48.4727C50.1694 48.47 50.0182 48.5264 49.9042 48.6413C49.7916 48.7549 49.7326 48.9072 49.7255 49.0717C49.5884 50.3838 48.6493 52.6608 45.4751 54.07C43.6156 54.8955 42.2358 55.2815 40.8779 55.4559C39.5824 55.6222 38.2985 55.5978 36.6088 55.5657C36.5159 55.5639 36.4219 55.5621 36.3265 55.5603C34.4683 55.5256 33.0244 55.2531 31.736 54.7579C30.4458 54.262 29.2955 53.5367 28.0283 52.5753C25.9027 50.9627 25.1741 49.3492 23.8343 46.382C23.7893 46.2824 23.7437 46.1813 23.6972 46.0786L23.6934 46.0659C23.6869 46.0442 23.6773 46.0118 23.665 45.9696C23.6404 45.8853 23.6052 45.7621 23.563 45.6074C23.4785 45.2979 23.3663 44.8636 23.2555 44.3649C23.0325 43.3609 22.8211 42.1213 22.8424 41.1165C22.8839 39.1602 23.0222 37.457 23.1501 36.2433C23.2141 35.6366 23.2754 35.1525 23.3206 34.8207C23.3432 34.6548 23.3618 34.527 23.3747 34.4409C23.3811 34.3979 23.3862 34.3653 23.3895 34.3437L23.3934 34.3194L23.3943 34.3136L23.3945 34.3122L23.3946 34.3119Z" fill="url(#paint4_linear)" stroke="url(#paint5_linear)" stroke-width="0.65917" stroke-linejoin="round"/>
</g>
<defs>
<filter id="filter0_d" x="0.237352" y="0.608551" width="52.347" height="58.5835" filterUnits="userSpaceOnUse" color-interpolation-filters="sRGB">
<feFlood flood-opacity="0" result="BackgroundImageFix"/>
<feColorMatrix in="SourceAlpha" type="matrix" values="0 0 0 0 0 0 0 0 0 0 0 0 0 0 0 0 0 0 127 0" result="hardAlpha"/>
<feOffset dx="-3" dy="-2"/>
<feGaussianBlur stdDeviation="2"/>
<feComposite in2="hardAlpha" operator="out"/>
<feColorMatrix type="matrix" values="0 0 0 0 0 0 0 0 0 0 0 0 0 0 0 0 0 0 0.2 0"/>
<feBlend mode="normal" in2="BackgroundImageFix" result="effect1_dropShadow"/>
<feBlend mode="normal" in="SourceGraphic" in2="effect1_dropShadow" result="shape"/>
</filter>
<linearGradient id="paint0_linear" x1="27.1097" y1="7.35543" x2="26.5752" y2="35.9387" gradientUnits="userSpaceOnUse">
<stop offset="0.359375" stop-color="#4D002D"/>
<stop offset="0.520833" stop-color="#4D002D" stop-opacity="0.83619"/>
<stop offset="0.645833" stop-color="#4D002D" stop-opacity="0.623238"/>
<stop offset="0.78125" stop-color="#4D002D" stop-opacity="0.377524"/>
<stop offset="1" stop-color="#DAD2BC"/>
</linearGradient>
<linearGradient id="paint1_linear" x1="27.1097" y1="7.35543" x2="26.5752" y2="35.9387" gradientUnits="userSpaceOnUse">
<stop offset="0.359375" stop-color="#4D002D"/>
<stop offset="1" stop-color="#DAD2BC"/>
</linearGradient>
<linearGradient id="paint2_linear" x1="21.5181" y1="20.3822" x2="20.9588" y2="50.2949" gradientUnits="userSpaceOnUse">
<stop offset="0.359375" stop-color="#4D002D"/>
<stop offset="0.520833" stop-color="#4D002D" stop-opacity="0.83619"/>
<stop offset="0.645833" stop-color="#4D002D" stop-opacity="0.623238"/>
<stop offset="0.78125" stop-color="#4D002D" stop-opacity="0.377524"/>
<stop offset="1" stop-color="#DAD2BC"/>
</linearGradient>
<linearGradient id="paint3_linear" x1="21.5181" y1="20.3822" x2="20.9588" y2="50.2949" gradientUnits="userSpaceOnUse">
<stop offset="0.359375" stop-color="#4D002D"/>
<stop offset="1" stop-color="#DAD2BC"/>
</linearGradient>
<linearGradient id="paint4_linear" x1="34.2229" y1="22.0853" x2="33.5798" y2="56.4755" gradientUnits="userSpaceOnUse">
<stop offset="0.411458" stop-color="#4D002D"/>
<stop offset="0.567708" stop-color="#5B143B" stop-opacity="0.903342"/>
<stop offset="0.71875" stop-color="#6E314F" stop-opacity="0.76526"/>
<stop offset="0.864583" stop-color="#906371" stop-opacity="0.526825"/>
<stop offset="0.9999" stop-color="#DAD2BC" stop-opacity="0"/>
<stop offset="1" stop-color="#4D002D" stop-opacity="0.4"/>
<stop offset="1" stop-color="#DAD2BC"/>
</linearGradient>
<linearGradient id="paint5_linear" x1="34.414" y1="22.089" x2="33.771" y2="56.4792" gradientUnits="userSpaceOnUse">
<stop offset="0.359375" stop-color="#4D002D"/>
<stop offset="1" stop-color="#DAD2BC"/>
</linearGradient>
</defs>
</svg>
