<svg width="878" height="839" viewBox="0 0 878 839" fill="none" xmlns="http://www.w3.org/2000/svg">
<path d="M0 0H877.136V839H0V0Z" fill="black"/>
<rect x="71.5056" y="74.0057" width="734.125" height="695.989" stroke="white" stroke-width="47.6705"/>
<path d="M392.041 449.01C392.058 448.942 392.065 448.873 392.064 448.803L392.064 448.803L392.064 448.803L392.064 448.798L392.064 448.778C392.064 448.76 392.063 448.731 392.063 448.693C392.063 448.616 392.063 448.5 392.064 448.346C392.067 448.037 392.076 447.575 392.099 446.971C392.145 445.763 392.25 443.985 392.482 441.719C392.948 437.187 393.926 430.705 395.976 422.93C400.078 407.381 408.468 386.665 425.629 366.023C434.022 355.926 447.727 346.6 463.127 339.797C478.522 332.996 495.527 328.752 510.472 328.752C547.655 328.752 568.515 341.494 596.863 359.866C609.994 370.608 615.839 377.233 619.968 387.628C622.049 392.865 623.7 399.077 625.6 407.291C626.391 410.707 627.231 414.5 628.164 418.715C629.458 424.557 630.932 431.212 632.704 438.805C632.737 438.949 632.809 439.08 632.911 439.186C633.785 440.094 634.663 440.746 635.68 440.709C636.674 440.672 637.489 439.979 638.249 439.185C638.394 439.033 638.476 438.83 638.476 438.619V323.325C638.476 323.133 638.408 322.948 638.285 322.801C637.692 322.091 636.756 321.706 635.862 321.672C634.955 321.637 633.947 321.962 633.327 322.861C633.258 322.96 633.213 323.074 633.193 323.194C631.082 336.15 627.258 344.008 622.812 348.569C618.391 353.103 613.283 354.454 608.393 354.244C603.474 354.033 598.776 352.238 595.282 350.47C593.54 349.589 592.111 348.721 591.118 348.075C590.622 347.752 590.236 347.485 589.976 347.3C589.845 347.207 589.747 347.135 589.681 347.087C589.649 347.062 589.624 347.044 589.609 347.032L589.591 347.02L589.588 347.017L589.587 347.016C589.544 346.984 589.498 346.955 589.449 346.931C586.543 345.513 583.773 344.147 581.113 342.835C555.352 330.127 539.905 322.507 510.472 322.507C476.498 322.507 449.684 329.231 412.731 353.148C391.103 367.147 374.035 387.95 357.351 420.07L357.351 420.07L357.346 420.079C341.17 452.226 332.876 481.825 332.876 521.194C332.876 521.205 332.876 521.216 332.876 521.226C333.532 537.946 335.996 551.361 340.634 563.845C345.271 576.325 352.067 587.838 361.345 600.764C361.364 600.791 361.384 600.816 361.406 600.84C363.047 602.632 364.628 604.366 366.158 606.044C386.985 628.882 398.444 641.449 425.147 654.237C457.286 669.63 482.745 672.996 513.001 672.996C548.482 672.996 575.027 666.81 600.134 653.476C617.632 644.183 627.073 633.885 632.504 623.588C637.534 614.051 639.092 604.562 640.486 596.075C640.593 595.422 640.7 594.775 640.806 594.135C640.814 594.09 640.817 594.045 640.817 594C640.817 591.684 639.451 590.183 637.75 590.183C636.056 590.183 634.694 591.672 634.682 593.971C633.69 608.237 625.242 632.439 596.119 647.777C579.37 656.598 566.806 660.864 554.352 662.934C542.541 664.897 530.805 664.893 515.612 664.887C514.753 664.886 513.883 664.886 513.001 664.886C496.034 664.886 482.701 662.36 470.7 657.462C458.691 652.56 447.972 645.265 436.247 635.666C415.484 618.666 405.575 601.537 392.02 569.729L392.013 569.703C391.998 569.651 391.977 569.573 391.949 569.471C391.893 569.265 391.811 568.961 391.706 568.566C391.496 567.775 391.197 566.621 390.836 565.168C390.116 562.263 389.155 558.168 388.192 553.41C386.265 543.884 384.341 531.745 384.317 521.193C384.273 501.238 386.205 483.186 388.149 470.121C389.12 463.59 390.095 458.308 390.825 454.66C391.191 452.837 391.495 451.422 391.708 450.464C391.815 449.985 391.898 449.62 391.955 449.376C391.984 449.254 392.005 449.162 392.02 449.101L392.036 449.032L392.04 449.015L392.041 449.011L392.041 449.01C392.041 449.01 392.041 449.01 391.974 448.994L392.041 449.01Z" fill="white" stroke="black" stroke-width="1.63505" stroke-linejoin="round"/>
<path d="M466.973 594.23L466.975 594.229C486.479 581.779 496.249 564.114 496.249 541.282C496.249 531.983 495.349 521.134 492.999 511.104C490.652 501.088 486.845 491.831 480.991 485.764C469.817 473.351 454.064 462.006 436.686 455.385C419.367 448.375 396.599 440.066 371.023 433.877L320.316 419.603L320.3 419.599L320.284 419.595C298.789 415.1 287.625 404.835 281.824 395.736C278.92 391.179 277.353 386.904 276.513 383.771C276.093 382.204 275.855 380.924 275.722 380.039C275.655 379.596 275.615 379.252 275.591 379.02C275.58 378.904 275.572 378.817 275.568 378.759C275.565 378.73 275.564 378.708 275.563 378.694L275.562 378.679L275.562 378.676L275.562 378.676L275.562 378.676L275.552 378.507L275.438 378.382C275.298 378.229 275.135 377.936 274.971 377.467C274.81 377.007 274.661 376.418 274.529 375.709C274.266 374.291 274.079 372.432 273.992 370.256C273.817 365.906 274.042 360.328 274.83 354.551C275.619 348.773 276.969 342.814 279.036 337.694C281.107 332.566 283.877 328.333 287.471 325.937C293.345 322.021 310.429 312.761 362.419 313.651V313.651H362.427H419.5H419.977V313.175V307.591V307.114H419.5H362.427L362.407 307.114C341.533 307.114 324.229 307.114 309.668 309.257C295.093 311.401 283.223 315.698 273.228 324.317C254.97 338.431 247.41 357.15 247.41 378.703C247.41 402.381 258.642 421.071 281.019 434.745L281.024 434.749C303.334 447.969 333.262 459.11 370.789 468.183C404.149 476.42 429.856 485.885 447.931 496.566L447.938 496.57C465.928 506.792 474.896 521.885 474.896 541.9C474.896 549.873 472.995 560.529 469.143 570.316C465.288 580.113 459.511 588.958 451.819 593.413C436.65 602.022 418.633 606.657 398.102 606.657C370.202 606.657 340.423 593.52 311.038 579.834L311.025 579.828L311.012 579.823L310.975 579.918C311.012 579.823 311.012 579.823 311.012 579.823L311.01 579.822L311.004 579.82L310.979 579.81C310.956 579.8 310.921 579.786 310.875 579.768C310.783 579.73 310.645 579.674 310.465 579.598C310.104 579.447 309.573 579.219 308.894 578.915C307.535 578.308 305.583 577.395 303.216 576.176C298.481 573.738 292.089 570.078 285.46 565.191C272.19 555.407 258.039 540.754 254.246 521.196L254.229 521.109L254.182 521.034C254.082 520.873 253.976 520.719 253.863 520.599C253.759 520.488 253.581 520.333 253.329 520.313C253.049 520.291 252.845 520.443 252.721 520.577C252.6 520.71 252.497 520.887 252.404 521.076L252.355 521.175V521.286V601.245V601.336L252.388 601.42C252.485 601.664 252.589 601.878 252.715 602.032C252.847 602.192 253.092 602.382 253.423 602.297C253.669 602.234 253.827 602.039 253.908 601.932C254.005 601.803 254.101 601.64 254.191 601.483L254.219 601.434L254.235 601.379C254.626 600.049 254.986 598.677 255.349 597.288C256.056 594.591 256.779 591.832 257.778 589.204C259.282 585.25 261.377 581.71 264.878 579.355C268.373 577.002 273.341 575.783 280.685 576.613C288.036 577.444 297.733 580.325 310.641 586.134C323.26 591.812 339.117 598.333 354.815 603.435C370.502 608.534 386.072 612.23 398.102 612.23C424.961 612.23 447.925 606.238 466.973 594.23Z" fill="white" stroke="black" stroke-width="0.953409"/>
<path d="M591.113 178.986H591.59V178.51V174.114V173.637H591.113H475.953H475.477V174.114V178.51V178.986H475.953H530.278V389.061L338.693 173.797L338.551 173.637H338.337H297.799H247.886H247.41V174.114V178.51V178.986H247.886H281.628L294.188 192.319V379.718V380.195H294.664H303.168H303.645V379.718V366.314V202.405L533.999 465.072L534.142 465.235H534.358H537.385H537.861V464.758V178.986H591.113Z" fill="white" stroke="black" stroke-width="0.953409"/>
<path d="M303.064 311.866C303.241 312.371 303.134 312.863 303.207 313.368C303.245 313.622 303.282 313.877 303.319 314.131C303.368 314.469 303.487 314.768 303.536 315.106C303.578 315.391 303.657 315.676 303.699 315.966C303.736 316.219 303.733 316.454 303.77 316.708C303.802 316.928 303.8 317.171 303.834 317.402C303.851 317.518 303.903 317.62 303.918 317.72C303.941 317.881 304.011 317.822 304.122 317.887M304.122 317.887C304.279 317.978 304.277 317.481 304.28 317.383C304.293 317.013 304.192 316.693 304.095 316.339C304.037 316.132 303.986 315.923 303.918 315.719C303.824 315.435 303.833 315.161 303.803 314.871C303.757 314.422 303.823 313.978 303.758 313.532C303.728 313.322 303.581 312.898 303.656 312.701C303.729 312.508 303.586 312.168 303.602 311.957C303.612 311.822 305.203 312.402 305.09 312.358C304.122 311.203 303.327 311.806 303.233 311.879C303.157 311.939 303.142 312.055 303.04 312.093C302.862 312.161 302.658 312.397 302.495 312.513C301.967 312.893 301.283 313.081 300.672 313.276C300.176 313.436 299.669 313.586 299.154 313.676C298.763 313.744 298.382 313.862 297.99 313.923C297.686 313.97 297.381 314.02 297.074 314.038C296.735 314.057 296.413 314.023 296.077 314.022C295.782 314.022 295.469 313.862 295.182 313.881C294.953 313.897 294.472 313.843 294.29 314.032C294.212 314.114 294.145 314.258 294.023 314.276C293.901 314.294 293.778 314.312 293.656 314.33C293.549 314.345 292.893 315.133 293.022 315.106C293.14 315.082 293.826 314.192 293.945 314.175C294.073 314.156 294.168 314.1 294.191 314.252C294.207 314.367 294.254 314.514 294.237 314.629C294.192 314.944 294.309 315.324 294.355 315.64C294.412 316.03 294.542 316.403 294.598 316.786C294.716 317.594 294.834 318.401 294.951 319.208C294.997 319.523 304.076 317.572 304.122 317.887ZM304.122 317.887C304.135 317.976 300.885 319.009 300.672 318.85C300.606 318.801 294.766 320.513 294.712 320.463C294.674 320.427 294.64 320.179 294.598 320.148C293.54 321.705 293.694 320.924 293.656 320.872C293.512 320.674 294.354 319.757 294.32 319.526C294.258 319.099 294.196 318.672 294.134 318.245C294.021 317.473 293.861 316.697 293.877 315.914C293.887 315.413 293.693 314.967 293.622 314.485" stroke="white" stroke-width="2.00216"/>
<path d="M283.027 316.931C292.625 312.923 294.809 312.571 294.809 312.571C294.809 312.571 305.365 309.728 307.354 309.408" stroke="black" stroke-width="0.953409" stroke-linecap="round"/>
<path d="M293.593 322.555C300.137 319.654 300.659 319.654 300.659 319.654C300.659 319.654 307.108 318.081 308.347 317.992" stroke="black" stroke-width="0.953409" stroke-linecap="round"/>
<path d="M367.055 598.982C374.5 616 408.085 612.145 408.085 612.145L404.028 607.664C413.5 608.5 358.309 598.062 367.055 598.982Z" stroke="white" stroke-width="8.34832"/>
<path d="M361.5 600.5C365.5 605 369 609 369 609" stroke="black" stroke-width="0.953409" stroke-linecap="round"/>
<path d="M427.903 627.837C410.271 612.031 402.44 593.613 402.44 593.613" stroke="black" stroke-width="0.953409" stroke-linecap="round"/>
<path d="M436.866 353.08L429.174 345.731" stroke="white" stroke-width="3" stroke-linecap="round"/>
<path d="M481.964 326.996L466.407 329.627" stroke="white" stroke-width="3" stroke-linecap="square"/>
<path d="M480.72 329.556L468.442 336.214" stroke="white" stroke-width="5" stroke-linecap="square"/>
<g filter="url(#filter0_d)">
<path d="M426.5 345C440.5 337.5 451 333.5 451 333.5C451 333.5 465.5 328 478.5 325.5" stroke="black" stroke-width="0.953409" stroke-linecap="round"/>
</g>
<path d="M436.5 355C454.484 340.943 481 333 481 333" stroke="black" stroke-width="0.953409" stroke-linecap="round"/>
<defs>
<filter id="filter0_d" x="421.978" y="325.073" width="61.044" height="28.3536" filterUnits="userSpaceOnUse" color-interpolation-filters="sRGB">
<feFlood flood-opacity="0" result="BackgroundImageFix"/>
<feColorMatrix in="SourceAlpha" type="matrix" values="0 0 0 0 0 0 0 0 0 0 0 0 0 0 0 0 0 0 127 0" result="hardAlpha"/>
<feOffset dy="4"/>
<feGaussianBlur stdDeviation="2"/>
<feComposite in2="hardAlpha" operator="out"/>
<feColorMatrix type="matrix" values="0 0 0 0 0 0 0 0 0 0 0 0 0 0 0 0 0 0 0.25 0"/>
<feBlend mode="normal" in2="BackgroundImageFix" result="effect1_dropShadow"/>
<feBlend mode="normal" in="SourceGraphic" in2="effect1_dropShadow" result="shape"/>
</filter>
</defs>
</svg>
